<?xml version="1.0" encoding="UTF-8"?>
<!DOCTYPE svg PUBLIC "-//W3C//DTD SVG 1.1//EN" "http://www.w3.org/Graphics/SVG/1.1/DTD/svg11.dtd">
<svg version="1.1" xmlns="http://www.w3.org/2000/svg" xmlns:xlink="http://www.w3.org/1999/xlink" x="0" y="0" width="336" height="168.583" viewBox="0, 0, 336, 168.583">
  <g id="Layer_1" transform="translate(-228, -119.667)">
    <path d="M228,119.667 L564,179.754 L564,288.25 L228,228.667 L228,119.667 z" fill="#2A363B"/>
    <path d="M271.481,202.459 L283.933,202.781 Q282.702,212.449 277.238,217.723 Q271.774,222.996 262.985,222.996 Q254.05,222.996 248.029,217.005 Q242.009,211.014 242.009,202.137 Q242.009,193.201 248.146,187.107 Q254.284,181.014 263.278,181.014 Q272.126,181.014 278.044,186.99 Q282.145,191.121 283.845,198.504 L271.1,199.354 Q268.962,192.791 262.985,192.791 Q259.177,192.791 256.701,195.428 Q254.225,198.064 254.225,202.137 Q254.225,206.062 256.657,208.626 Q259.089,211.189 262.809,211.189 Q266.589,211.189 268.83,208.934 Q271.071,206.678 271.481,202.459 z" fill="#FF847C"/>
    <path d="M302.595,192.176 Q308.806,192.176 313.244,196.644 Q317.683,201.111 317.683,207.352 Q317.683,213.68 313.185,218.133 Q308.688,222.586 302.331,222.586 Q295.974,222.586 291.462,218.118 Q286.95,213.65 286.95,207.352 Q286.95,200.936 291.462,196.556 Q295.974,192.176 302.595,192.176 z M302.302,202.986 Q300.544,202.986 299.313,204.261 Q298.083,205.535 298.083,207.381 Q298.083,209.197 299.328,210.486 Q300.573,211.775 302.302,211.775 Q304.059,211.775 305.305,210.486 Q306.55,209.197 306.55,207.381 Q306.55,205.535 305.319,204.261 Q304.089,202.986 302.302,202.986 z" fill="#FF847C"/>
    <path d="M340.241,182.01 L351.198,182.01 L351.198,206.355 Q351.198,213.064 347.683,217.283 Q345.661,219.715 342.541,221.15 Q339.421,222.586 336.14,222.586 Q329.606,222.586 325.124,218.191 Q320.642,213.797 320.642,207.41 Q320.642,201.229 325.095,196.717 Q329.548,192.205 335.642,192.205 Q336.608,192.205 338.571,192.381 L338.571,204.451 Q337.224,203.396 335.876,203.396 Q334.177,203.396 332.961,204.642 Q331.745,205.887 331.745,207.645 Q331.745,209.344 333.005,210.56 Q334.265,211.775 336.022,211.775 Q340.241,211.775 340.241,205.945 z" fill="#FF847C"/>
    <path d="M385.681,209.168 L369.069,209.168 Q368.688,207.908 368.688,206.854 Q368.688,205.389 369.216,203.982 L374.782,203.982 Q374.196,200.73 371.12,200.73 Q369.069,200.73 367.78,202.474 Q366.491,204.217 366.491,206.941 Q366.491,209.783 367.736,211.541 Q368.981,213.299 371.003,213.299 Q372.643,213.299 374.167,211.658 L380.407,219.158 Q376.042,222.586 370.71,222.586 Q364.206,222.586 359.782,218.221 Q355.358,213.855 355.358,207.41 Q355.358,200.994 359.826,196.57 Q364.294,192.146 370.798,192.146 Q377.155,192.146 381.476,196.468 Q385.798,200.789 385.798,207.117 Q385.798,207.762 385.681,209.168 z" fill="#FF847C"/>
    <path d="M401.179,182.01 L401.179,222 L390.222,222 L390.222,182.01 z" fill="#FF847C"/>
    <path d="M418.552,192.791 L418.552,222 L407.595,222 L407.595,192.791 z M413.102,179.754 Q415.329,179.754 416.955,181.321 Q418.581,182.889 418.581,185.027 Q418.581,187.312 417.043,188.777 Q415.505,190.242 413.102,190.242 Q410.7,190.242 409.162,188.777 Q407.624,187.312 407.624,185.027 Q407.624,182.889 409.25,181.321 Q410.876,179.754 413.102,179.754 z" fill="#FF847C"/>
    <path d="M442.927,208.553 L453.796,208.143 Q453.327,214.471 449.079,218.543 Q444.831,222.615 438.737,222.615 Q432.292,222.615 427.853,218.133 Q423.415,213.65 423.415,207.146 Q423.415,200.965 427.897,196.57 Q432.38,192.176 438.649,192.176 Q444.128,192.176 448.317,195.633 Q452.507,199.09 453.532,204.451 L442.429,204.861 Q440.993,202.986 438.796,202.986 Q436.921,202.986 435.72,204.217 Q434.518,205.447 434.518,207.322 Q434.518,209.227 435.793,210.516 Q437.067,211.805 438.972,211.805 Q441.755,211.805 442.927,208.553 z" fill="#FF847C"/>
    <path d="M474.802,211.043 L474.802,222.381 Q473.454,222.615 472.341,222.615 Q465.749,222.615 461.354,218.279 Q456.96,213.943 456.96,207.41 Q456.96,201.053 461.398,196.629 Q465.837,192.205 472.194,192.205 Q479.284,192.205 483.371,196.351 Q487.458,200.496 487.458,207.674 L487.458,222 L476.501,222 L476.501,208.465 Q476.501,206.15 475.373,204.773 Q474.245,203.396 472.341,203.396 Q470.612,203.396 469.352,204.656 Q468.093,205.916 468.093,207.645 Q468.093,209.461 469.235,210.633 Q470.378,211.805 472.136,211.805 Q473.571,211.805 474.802,211.043 z" fill="#FF847C"/>
    <path d="M511.774,208.553 L522.643,208.143 Q522.175,214.471 517.927,218.543 Q513.679,222.615 507.585,222.615 Q501.14,222.615 496.701,218.133 Q492.263,213.65 492.263,207.146 Q492.263,200.965 496.745,196.57 Q501.227,192.176 507.497,192.176 Q512.975,192.176 517.165,195.633 Q521.354,199.09 522.38,204.451 L511.276,204.861 Q509.841,202.986 507.643,202.986 Q505.768,202.986 504.567,204.217 Q503.366,205.447 503.366,207.322 Q503.366,209.227 504.641,210.516 Q505.915,211.805 507.819,211.805 Q510.602,211.805 511.774,208.553 z" fill="#FF847C"/>
    <path d="M531.198,234.803 L531.198,225.281 Q533.425,226.219 535.095,226.219 Q540.427,226.219 542.009,220.213 Q539.138,221.912 536.384,221.912 Q532.311,221.912 529.675,218.88 Q527.038,215.848 527.038,211.16 L527.038,192.791 L537.995,192.791 L537.995,208.494 Q537.995,211.102 540.163,211.102 Q542.243,211.102 542.243,208.23 L542.243,192.791 L553.2,192.791 L553.2,218.865 Q553.2,226.16 549.099,230.643 Q544.206,235.975 537.263,235.975 Q534.216,235.975 531.198,234.803 z" fill="#FF847C"/>
  </g>
</svg>
