<svg xmlns="http://www.w3.org/2000/svg" width="384" height="128"><path d="M0 50.2L305.5 0 384 100.3 37.4 128 0 50.2z" fill="#2A363B"/><path d="M51.5 50.7q9 0 15.5 6.6t6.5 15.8q0 9.3-6.5 15.9-6.5 6.5-15.9 6.5-9.3 0-15.8-6.6-6.6-6.5-6.6-15.8 0-9.4 6.6-15.9t16.2-6.5zM51 63.3q-3.9 0-6.6 2.8-2.8 3-2.8 7t2.8 7q2.7 2.8 6.6 2.8 4 0 6.7-2.9 2.7-2.8 2.7-7 0-4-2.7-6.9-2.8-2.8-6.7-2.8z" fill="#FF847C"/><path d="M51.5 50.7q9 0 15.5 6.6t6.5 15.8q0 9.3-6.5 15.9-6.5 6.5-15.9 6.5-9.3 0-15.8-6.6-6.6-6.5-6.6-15.8 0-9.4 6.6-15.9t16.2-6.5zM51 63.3q-3.9 0-6.6 2.8-2.8 3-2.8 7t2.8 7q2.7 2.8 6.6 2.8 4 0 6.7-2.9 2.7-2.8 2.7-7 0-4-2.7-6.9-2.8-2.8-6.7-2.8z" stroke="#454545" stroke-width=".5" fill="none"/><path d="M78.6 63.7h11.7v17.6q0 2.7 2.2 2.7t2.2-2.7V63.7h11.7v17.4q0 6-4 10.2-4 4.2-10 4.2-6.6 0-10.6-4.9-3.2-3.7-3.2-10.5z" fill="#FF847C"/><path d="M78.6 63.7h11.7v17.6q0 2.7 2.2 2.7t2.2-2.7V63.7h11.7v17.4q0 6-4 10.2-4 4.2-10 4.2-6.6 0-10.6-4.9-3.2-3.7-3.2-10.5z" stroke="#454545" stroke-width=".5" fill="none"/><path d="M143.8 80.7h-17.7q-.4-1.3-.4-2.4 0-1.6.6-3.1h5.9q-.6-3.5-4-3.5-2 0-3.5 1.9-1.3 1.9-1.3 4.8 0 3 1.3 4.9 1.3 1.8 3.5 1.8 1.7 0 3.3-1.7l6.7 8q-4.7 3.6-10.3 3.6-7 0-11.7-4.6-4.7-4.7-4.7-11.5 0-6.9 4.7-11.6 4.8-4.7 11.8-4.7 6.7 0 11.3 4.6 4.7 4.6 4.7 11.3l-.2 2.2z" fill="#FF847C"/><path d="M143.8 80.7h-17.7q-.4-1.3-.4-2.4 0-1.6.6-3.1h5.9q-.6-3.5-4-3.5-2 0-3.5 1.9-1.3 1.9-1.3 4.8 0 3 1.3 4.9 1.3 1.8 3.5 1.8 1.7 0 3.3-1.7l6.7 8q-4.7 3.6-10.3 3.6-7 0-11.7-4.6-4.7-4.7-4.7-11.5 0-6.9 4.7-11.6 4.8-4.7 11.8-4.7 6.7 0 11.3 4.6 4.7 4.6 4.7 11.3l-.2 2.2z" stroke="#454545" stroke-width=".5" fill="none"/><path d="M168.2 63.7V76q-2.5 0-3.4 1-1 .9-1.2 3.6-.8 9-7 12.7-3.2 2-9.3 2h-1.6V82.9h.5q2.8 0 4-1.2 1.3-1.2 1.4-4 .3-4.9 1-6.8.6-2 2.5-3.9 3.5-3.3 9.6-3.3z" fill="#FF847C"/><path d="M168.2 63.7V76q-2.5 0-3.4 1-1 .9-1.2 3.6-.8 9-7 12.7-3.2 2-9.3 2h-1.6V82.9h.5q2.8 0 4-1.2 1.3-1.2 1.4-4 .3-4.9 1-6.8.6-2 2.5-3.9 3.5-3.3 9.6-3.3z" stroke="#454545" stroke-width=".5" fill="none"/><path d="M182.4 51.8v11.9h5.3V76h-5.3q0 3.8 1.2 5.2 1.2 1.4 4.3 1.4v12.3h-1.4q-4 0-7.4-1.9-3.6-1.8-5.7-5-2.7-4-2.7-10.6V51.8z" fill="#FF847C"/><path d="M182.4 51.8v11.9h5.3V76h-5.3q0 3.8 1.2 5.2 1.2 1.4 4.3 1.4v12.3h-1.4q-4 0-7.4-1.9-3.6-1.8-5.7-5-2.7-4-2.7-10.6V51.8z" stroke="#454545" stroke-width=".5" fill="none"/><g><path d="M223.1 73.6l13.3.3q-1.3 10.3-7.1 16-5.8 5.6-15.2 5.6-9.6 0-16-6.4t-6.4-15.9q0-9.5 6.5-16 6.6-6.5 16.2-6.5 9.4 0 15.7 6.4 4.4 4.4 6.2 12.3l-13.6.9q-2.2-7-8.6-7-4 0-6.7 2.8t-2.7 7.1q0 4.2 2.6 7 2.6 2.7 6.6 2.7 4 0 6.4-2.4 2.4-2.4 2.8-7z" fill="#FF847C"/><path d="M223.1 73.6l13.3.3q-1.3 10.3-7.1 16-5.8 5.6-15.2 5.6-9.6 0-16-6.4t-6.4-15.9q0-9.5 6.5-16 6.6-6.5 16.2-6.5 9.4 0 15.7 6.4 4.4 4.4 6.2 12.3l-13.6.9q-2.2-7-8.6-7-4 0-6.7 2.8t-2.7 7.1q0 4.2 2.6 7 2.6 2.7 6.6 2.7 4 0 6.4-2.4 2.4-2.4 2.8-7z" stroke="#454545" stroke-width=".5" fill="none"/></g><g><path d="M256.3 62.6q6.7 0 11.4 4.8 4.7 4.7 4.7 11.4t-4.8 11.5Q262.8 95 256 95q-6.7 0-11.5-4.7-4.9-4.8-4.9-11.5 0-6.8 4.9-11.5 4.8-4.7 11.8-4.7zm-.3 11.5q-1.9 0-3.2 1.4-1.3 1.4-1.3 3.3 0 2 1.3 3.3 1.4 1.4 3.2 1.4 1.9 0 3.2-1.4 1.3-1.3 1.3-3.3 0-2-1.3-3.3-1.3-1.4-3.2-1.4z" fill="#FF847C"/><path d="M256.3 62.6q6.7 0 11.4 4.8 4.7 4.7 4.7 11.4t-4.8 11.5Q262.8 95 256 95q-6.7 0-11.5-4.7-4.9-4.8-4.9-11.5 0-6.8 4.9-11.5 4.8-4.7 11.8-4.7zm-.3 11.5q-1.9 0-3.2 1.4-1.3 1.4-1.3 3.3 0 2 1.3 3.3 1.4 1.4 3.2 1.4 1.9 0 3.2-1.4 1.3-1.3 1.3-3.3 0-2-1.3-3.3-1.3-1.4-3.2-1.4z" stroke="#454545" stroke-width=".5" fill="none"/></g><g><path d="M296.5 51.8h11.7v26q0 7-3.8 11.6-2.1 2.6-5.5 4.1-3.3 1.5-6.8 1.5-7 0-11.7-4.6-4.8-4.7-4.8-11.5 0-6.6 4.7-11.4 4.8-4.9 11.3-4.9l3.1.2v12.9q-1.4-1.1-2.9-1.1-1.8 0-3 1.3-1.4 1.3-1.4 3.2 0 1.8 1.4 3.1 1.3 1.3 3.2 1.3 4.5 0 4.5-6.2z" fill="#FF847C"/><path d="M296.5 51.8h11.7v26q0 7-3.8 11.6-2.1 2.6-5.5 4.1-3.3 1.5-6.8 1.5-7 0-11.7-4.6-4.8-4.7-4.8-11.5 0-6.6 4.7-11.4 4.8-4.9 11.3-4.9l3.1.2v12.9q-1.4-1.1-2.9-1.1-1.8 0-3 1.3-1.4 1.3-1.4 3.2 0 1.8 1.4 3.1 1.3 1.3 3.2 1.3 4.5 0 4.5-6.2z" stroke="#454545" stroke-width=".5" fill="none"/></g><g><path d="M345 80.7h-17.8q-.4-1.3-.4-2.4 0-1.6.6-3.1h6q-.7-3.5-4-3.5-2.2 0-3.5 1.9-1.4 1.9-1.4 4.8 0 3 1.3 4.9 1.3 1.8 3.5 1.8 1.7 0 3.4-1.7l6.6 8Q334.7 95 329 95q-7 0-11.7-4.6-4.7-4.7-4.7-11.5 0-6.9 4.8-11.6 4.7-4.7 11.7-4.7 6.8 0 11.4 4.6 4.6 4.6 4.6 11.3l-.1 2.2z" fill="#FF847C"/><path d="M345 80.7h-17.8q-.4-1.3-.4-2.4 0-1.6.6-3.1h6q-.7-3.5-4-3.5-2.2 0-3.5 1.9-1.4 1.9-1.4 4.8 0 3 1.3 4.9 1.3 1.8 3.5 1.8 1.7 0 3.4-1.7l6.6 8Q334.7 95 329 95q-7 0-11.7-4.6-4.7-4.7-4.7-11.5 0-6.9 4.8-11.6 4.7-4.7 11.7-4.7 6.8 0 11.4 4.6 4.6 4.6 4.6 11.3l-.1 2.2z" stroke="#454545" stroke-width=".5" fill="none"/></g></svg>