<?xml version="1.0" encoding="UTF-8"?>
<!DOCTYPE svg PUBLIC "-//W3C//DTD SVG 1.1//EN" "http://www.w3.org/Graphics/SVG/1.1/DTD/svg11.dtd">
<svg version="1.1" xmlns="http://www.w3.org/2000/svg" xmlns:xlink="http://www.w3.org/1999/xlink" x="0" y="0" width="384" height="128.025" viewBox="0, 0, 384, 128.025">
  <g id="Layer_1" transform="translate(-228, -354.687)">
    <path d="M228,404.889 L533.454,354.687 L612,455 L265.397,482.712 L228,404.889 z" fill="#2A363B"/>
    <g>
      <path d="M279.482,405.389 Q288.544,405.389 295.029,411.983 Q301.513,418.577 301.513,427.764 Q301.513,437.108 294.982,443.639 Q288.451,450.171 279.107,450.171 Q269.826,450.171 263.263,443.608 Q256.701,437.046 256.701,427.764 Q256.701,418.389 263.31,411.889 Q269.919,405.389 279.482,405.389 z M279.107,417.952 Q275.201,417.952 272.451,420.827 Q269.701,423.702 269.701,427.764 Q269.701,431.827 272.466,434.702 Q275.232,437.577 279.107,437.577 Q283.044,437.577 285.779,434.718 Q288.513,431.858 288.513,427.764 Q288.513,423.671 285.779,420.811 Q283.044,417.952 279.107,417.952 z" fill="#FF847C"/>
      <path d="M279.482,405.389 Q288.544,405.389 295.029,411.983 Q301.513,418.577 301.513,427.764 Q301.513,437.108 294.982,443.639 Q288.451,450.171 279.107,450.171 Q269.826,450.171 263.263,443.608 Q256.701,437.046 256.701,427.764 Q256.701,418.389 263.31,411.889 Q269.919,405.389 279.482,405.389 z M279.107,417.952 Q275.201,417.952 272.451,420.827 Q269.701,423.702 269.701,427.764 Q269.701,431.827 272.466,434.702 Q275.232,437.577 279.107,437.577 Q283.044,437.577 285.779,434.718 Q288.513,431.858 288.513,427.764 Q288.513,423.671 285.779,420.811 Q283.044,417.952 279.107,417.952 z" fill-opacity="0" stroke="#454545" stroke-width="0.5"/>
    </g>
    <g>
      <path d="M306.607,418.389 L318.294,418.389 L318.294,435.983 Q318.294,438.639 320.513,438.639 Q322.701,438.639 322.701,435.983 L322.701,418.389 L334.388,418.389 L334.388,435.764 Q334.388,441.827 330.357,445.999 Q326.326,450.171 320.482,450.171 Q313.826,450.171 309.763,445.327 Q306.607,441.546 306.607,434.827 z" fill="#FF847C"/>
      <path d="M306.607,418.389 L318.294,418.389 L318.294,435.983 Q318.294,438.639 320.513,438.639 Q322.701,438.639 322.701,435.983 L322.701,418.389 L334.388,418.389 L334.388,435.764 Q334.388,441.827 330.357,445.999 Q326.326,450.171 320.482,450.171 Q313.826,450.171 309.763,445.327 Q306.607,441.546 306.607,434.827 z" fill-opacity="0" stroke="#454545" stroke-width="0.5"/>
    </g>
    <g>
      <path d="M371.826,435.421 L354.107,435.421 Q353.701,434.077 353.701,432.952 Q353.701,431.389 354.263,429.889 L360.201,429.889 Q359.576,426.421 356.294,426.421 Q354.107,426.421 352.732,428.28 Q351.357,430.139 351.357,433.046 Q351.357,436.077 352.685,437.952 Q354.013,439.827 356.169,439.827 Q357.919,439.827 359.544,438.077 L366.201,446.077 Q361.544,449.733 355.857,449.733 Q348.919,449.733 344.201,445.077 Q339.482,440.421 339.482,433.546 Q339.482,426.702 344.247,421.983 Q349.013,417.264 355.951,417.264 Q362.732,417.264 367.341,421.874 Q371.951,426.483 371.951,433.233 Q371.951,433.921 371.826,435.421 z" fill="#FF847C"/>
      <path d="M371.826,435.421 L354.107,435.421 Q353.701,434.077 353.701,432.952 Q353.701,431.389 354.263,429.889 L360.201,429.889 Q359.576,426.421 356.294,426.421 Q354.107,426.421 352.732,428.28 Q351.357,430.139 351.357,433.046 Q351.357,436.077 352.685,437.952 Q354.013,439.827 356.169,439.827 Q357.919,439.827 359.544,438.077 L366.201,446.077 Q361.544,449.733 355.857,449.733 Q348.919,449.733 344.201,445.077 Q339.482,440.421 339.482,433.546 Q339.482,426.702 344.247,421.983 Q349.013,417.264 355.951,417.264 Q362.732,417.264 367.341,421.874 Q371.951,426.483 371.951,433.233 Q371.951,433.921 371.826,435.421 z" fill-opacity="0" stroke="#454545" stroke-width="0.5"/>
    </g>
    <g>
      <path d="M396.201,418.389 L396.201,430.702 Q393.732,430.702 392.81,431.624 Q391.888,432.546 391.638,435.264 Q390.826,444.296 384.638,448.014 Q381.357,449.952 375.326,449.952 L373.701,449.952 L373.701,437.577 L374.232,437.577 Q377.044,437.577 378.247,436.405 Q379.451,435.233 379.638,432.296 Q379.888,427.514 380.529,425.577 Q381.169,423.639 383.138,421.733 Q386.576,418.389 392.669,418.389 z" fill="#FF847C"/>
      <path d="M396.201,418.389 L396.201,430.702 Q393.732,430.702 392.81,431.624 Q391.888,432.546 391.638,435.264 Q390.826,444.296 384.638,448.014 Q381.357,449.952 375.326,449.952 L373.701,449.952 L373.701,437.577 L374.232,437.577 Q377.044,437.577 378.247,436.405 Q379.451,435.233 379.638,432.296 Q379.888,427.514 380.529,425.577 Q381.169,423.639 383.138,421.733 Q386.576,418.389 392.669,418.389 z" fill-opacity="0" stroke="#454545" stroke-width="0.5"/>
    </g>
    <g>
      <path d="M410.419,406.452 L410.419,418.389 L415.669,418.389 L415.669,430.733 L410.419,430.733 Q410.419,434.452 411.591,435.858 Q412.763,437.264 415.888,437.264 L415.888,449.546 Q414.982,449.577 414.544,449.577 Q410.576,449.577 407.06,447.733 Q403.544,445.889 401.419,442.733 Q398.732,438.702 398.732,432.046 L398.732,406.452 z" fill="#FF847C"/>
      <path d="M410.419,406.452 L410.419,418.389 L415.669,418.389 L415.669,430.733 L410.419,430.733 Q410.419,434.452 411.591,435.858 Q412.763,437.264 415.888,437.264 L415.888,449.546 Q414.982,449.577 414.544,449.577 Q410.576,449.577 407.06,447.733 Q403.544,445.889 401.419,442.733 Q398.732,438.702 398.732,432.046 L398.732,406.452 z" fill-opacity="0" stroke="#454545" stroke-width="0.5"/>
    </g>
    <g>
      <path d="M451.138,428.264 L464.419,428.608 Q463.107,438.921 457.279,444.546 Q451.451,450.171 442.076,450.171 Q432.544,450.171 426.122,443.78 Q419.701,437.389 419.701,427.921 Q419.701,418.389 426.247,411.889 Q432.794,405.389 442.388,405.389 Q451.826,405.389 458.138,411.764 Q462.513,416.171 464.326,424.046 L450.732,424.952 Q448.451,417.952 442.076,417.952 Q438.013,417.952 435.372,420.764 Q432.732,423.577 432.732,427.921 Q432.732,432.108 435.326,434.843 Q437.919,437.577 441.888,437.577 Q445.919,437.577 448.31,435.171 Q450.701,432.764 451.138,428.264 z" fill="#FF847C"/>
      <path d="M451.138,428.264 L464.419,428.608 Q463.107,438.921 457.279,444.546 Q451.451,450.171 442.076,450.171 Q432.544,450.171 426.122,443.78 Q419.701,437.389 419.701,427.921 Q419.701,418.389 426.247,411.889 Q432.794,405.389 442.388,405.389 Q451.826,405.389 458.138,411.764 Q462.513,416.171 464.326,424.046 L450.732,424.952 Q448.451,417.952 442.076,417.952 Q438.013,417.952 435.372,420.764 Q432.732,423.577 432.732,427.921 Q432.732,432.108 435.326,434.843 Q437.919,437.577 441.888,437.577 Q445.919,437.577 448.31,435.171 Q450.701,432.764 451.138,428.264 z" fill-opacity="0" stroke="#454545" stroke-width="0.5"/>
    </g>
    <g>
      <path d="M484.326,417.296 Q490.951,417.296 495.685,422.061 Q500.419,426.827 500.419,433.483 Q500.419,440.233 495.622,444.983 Q490.826,449.733 484.044,449.733 Q477.263,449.733 472.451,444.968 Q467.638,440.202 467.638,433.483 Q467.638,426.639 472.451,421.968 Q477.263,417.296 484.326,417.296 z M484.013,428.827 Q482.138,428.827 480.826,430.186 Q479.513,431.546 479.513,433.514 Q479.513,435.452 480.841,436.827 Q482.169,438.202 484.013,438.202 Q485.888,438.202 487.216,436.827 Q488.544,435.452 488.544,433.514 Q488.544,431.546 487.232,430.186 Q485.919,428.827 484.013,428.827 z" fill="#FF847C"/>
      <path d="M484.326,417.296 Q490.951,417.296 495.685,422.061 Q500.419,426.827 500.419,433.483 Q500.419,440.233 495.622,444.983 Q490.826,449.733 484.044,449.733 Q477.263,449.733 472.451,444.968 Q467.638,440.202 467.638,433.483 Q467.638,426.639 472.451,421.968 Q477.263,417.296 484.326,417.296 z M484.013,428.827 Q482.138,428.827 480.826,430.186 Q479.513,431.546 479.513,433.514 Q479.513,435.452 480.841,436.827 Q482.169,438.202 484.013,438.202 Q485.888,438.202 487.216,436.827 Q488.544,435.452 488.544,433.514 Q488.544,431.546 487.232,430.186 Q485.919,428.827 484.013,428.827 z" fill-opacity="0" stroke="#454545" stroke-width="0.5"/>
    </g>
    <g>
      <path d="M524.482,406.452 L536.169,406.452 L536.169,432.421 Q536.169,439.577 532.419,444.077 Q530.263,446.671 526.935,448.202 Q523.607,449.733 520.107,449.733 Q513.138,449.733 508.357,445.046 Q503.576,440.358 503.576,433.546 Q503.576,426.952 508.326,422.139 Q513.076,417.327 519.576,417.327 Q520.607,417.327 522.701,417.514 L522.701,430.389 Q521.263,429.264 519.826,429.264 Q518.013,429.264 516.716,430.593 Q515.419,431.921 515.419,433.796 Q515.419,435.608 516.763,436.905 Q518.107,438.202 519.982,438.202 Q524.482,438.202 524.482,431.983 z" fill="#FF847C"/>
      <path d="M524.482,406.452 L536.169,406.452 L536.169,432.421 Q536.169,439.577 532.419,444.077 Q530.263,446.671 526.935,448.202 Q523.607,449.733 520.107,449.733 Q513.138,449.733 508.357,445.046 Q503.576,440.358 503.576,433.546 Q503.576,426.952 508.326,422.139 Q513.076,417.327 519.576,417.327 Q520.607,417.327 522.701,417.514 L522.701,430.389 Q521.263,429.264 519.826,429.264 Q518.013,429.264 516.716,430.593 Q515.419,431.921 515.419,433.796 Q515.419,435.608 516.763,436.905 Q518.107,438.202 519.982,438.202 Q524.482,438.202 524.482,431.983 z" fill-opacity="0" stroke="#454545" stroke-width="0.5"/>
    </g>
    <g>
      <path d="M572.951,435.421 L555.232,435.421 Q554.826,434.077 554.826,432.952 Q554.826,431.389 555.388,429.889 L561.326,429.889 Q560.701,426.421 557.419,426.421 Q555.232,426.421 553.857,428.28 Q552.482,430.139 552.482,433.046 Q552.482,436.077 553.81,437.952 Q555.138,439.827 557.294,439.827 Q559.044,439.827 560.669,438.077 L567.326,446.077 Q562.669,449.733 556.982,449.733 Q550.044,449.733 545.326,445.077 Q540.607,440.421 540.607,433.546 Q540.607,426.702 545.372,421.983 Q550.138,417.264 557.076,417.264 Q563.857,417.264 568.466,421.874 Q573.076,426.483 573.076,433.233 Q573.076,433.921 572.951,435.421 z" fill="#FF847C"/>
      <path d="M572.951,435.421 L555.232,435.421 Q554.826,434.077 554.826,432.952 Q554.826,431.389 555.388,429.889 L561.326,429.889 Q560.701,426.421 557.419,426.421 Q555.232,426.421 553.857,428.28 Q552.482,430.139 552.482,433.046 Q552.482,436.077 553.81,437.952 Q555.138,439.827 557.294,439.827 Q559.044,439.827 560.669,438.077 L567.326,446.077 Q562.669,449.733 556.982,449.733 Q550.044,449.733 545.326,445.077 Q540.607,440.421 540.607,433.546 Q540.607,426.702 545.372,421.983 Q550.138,417.264 557.076,417.264 Q563.857,417.264 568.466,421.874 Q573.076,426.483 573.076,433.233 Q573.076,433.921 572.951,435.421 z" fill-opacity="0" stroke="#454545" stroke-width="0.5"/>
    </g>
  </g>
</svg>
