<?xml version="1.0" encoding="UTF-8"?>
<!DOCTYPE svg PUBLIC "-//W3C//DTD SVG 1.1//EN" "http://www.w3.org/Graphics/SVG/1.1/DTD/svg11.dtd">
<svg version="1.1" xmlns="http://www.w3.org/2000/svg" xmlns:xlink="http://www.w3.org/1999/xlink" x="0" y="0" width="240" height="40" viewBox="0, 0, 240, 40">
  <g id="Layer_1" transform="translate(0, -44.511)">
    <path d="M67.382,64.511 Q67.382,61.768 68.358,59.368 Q69.334,56.968 71.108,55.197 Q72.883,53.425 75.427,52.397 Q77.971,51.368 81.106,51.368 Q82.644,51.368 83.857,51.568 Q85.069,51.768 85.898,52.054 Q86.903,52.339 87.613,52.739 L88.441,51.368 Q87.495,50.968 86.43,50.625 Q85.424,50.339 84.123,50.111 Q82.821,49.882 81.106,49.882 Q78.089,49.882 75.338,50.911 Q72.587,51.939 70.487,53.854 Q68.387,55.768 67.115,58.482 Q65.844,61.197 65.844,64.511 Q65.844,67.882 67.056,70.568 Q68.269,73.254 70.399,75.168 Q72.528,77.082 75.368,78.111 Q78.207,79.139 81.402,79.139 Q83.176,79.139 84.596,78.854 Q86.016,78.568 87.022,78.225 Q88.145,77.825 89.033,77.311 L88.205,75.939 Q87.436,76.454 86.43,76.797 Q85.543,77.139 84.3,77.397 Q83.058,77.654 81.402,77.654 Q78.148,77.654 75.545,76.625 Q72.942,75.597 71.138,73.825 Q69.334,72.054 68.358,69.654 Q67.382,67.254 67.382,64.511 z M59.928,64.511 Q59.928,59.939 61.584,56.254 Q63.241,52.568 66.08,49.939 Q68.92,47.311 72.706,45.911 Q76.492,44.511 80.751,44.511 Q84.123,44.511 86.755,45.139 Q89.388,45.768 91.281,46.568 Q93.47,47.482 95.067,48.568 L88.855,59.139 Q87.909,58.454 86.785,57.825 Q85.779,57.368 84.389,56.939 Q82.999,56.511 81.224,56.511 Q79.39,56.511 77.852,57.139 Q76.314,57.768 75.161,58.854 Q74.007,59.939 73.356,61.397 Q72.706,62.854 72.706,64.511 Q72.706,66.168 73.386,67.625 Q74.066,69.082 75.249,70.168 Q76.433,71.254 78.03,71.882 Q79.627,72.511 81.52,72.511 Q83.413,72.511 84.892,72.054 Q86.371,71.597 87.376,71.025 Q88.56,70.397 89.447,69.539 L95.658,80.111 Q94.061,81.368 91.872,82.339 Q89.979,83.139 87.317,83.825 Q84.655,84.511 81.224,84.511 Q76.61,84.511 72.706,83.054 Q68.801,81.597 65.962,78.968 Q63.122,76.339 61.525,72.654 Q59.928,68.968 59.928,64.511 z" fill="#FF7374"/>
    <path d="M96.25,64.511 Q96.25,60.397 97.877,56.739 Q99.504,53.082 102.313,50.368 Q105.123,47.654 108.909,46.082 Q112.695,44.511 116.955,44.511 Q121.214,44.511 125,46.082 Q128.786,47.654 131.596,50.368 Q134.406,53.082 136.033,56.739 Q137.659,60.397 137.659,64.511 Q137.659,68.625 136.033,72.282 Q134.406,75.939 131.596,78.654 Q128.786,81.368 125,82.939 Q121.214,84.511 116.955,84.511 Q112.695,84.511 108.909,82.939 Q105.123,81.368 102.313,78.654 Q99.504,75.939 97.877,72.282 Q96.25,68.625 96.25,64.511 z M101.811,64.511 Q101.811,67.539 102.994,70.197 Q104.177,72.854 106.247,74.854 Q108.318,76.854 111.069,77.997 Q113.819,79.139 116.955,79.139 Q120.09,79.139 122.841,77.997 Q125.591,76.854 127.662,74.854 Q129.732,72.854 130.916,70.197 Q132.099,67.539 132.099,64.511 Q132.099,61.482 130.916,58.825 Q129.732,56.168 127.662,54.168 Q125.591,52.168 122.841,51.025 Q120.09,49.882 116.955,49.882 Q113.819,49.882 111.069,51.025 Q108.318,52.168 106.247,54.168 Q104.177,56.168 102.994,58.825 Q101.811,61.482 101.811,64.511 z M108.673,64.511 Q108.673,66.168 109.323,67.625 Q109.974,69.082 111.098,70.168 Q112.222,71.254 113.731,71.882 Q115.239,72.511 116.955,72.511 Q118.67,72.511 120.179,71.882 Q121.687,71.254 122.811,70.168 Q123.935,69.082 124.586,67.625 Q125.237,66.168 125.237,64.511 Q125.237,62.854 124.586,61.397 Q123.935,59.939 122.811,58.854 Q121.687,57.768 120.179,57.139 Q118.67,56.511 116.955,56.511 Q115.239,56.511 113.731,57.139 Q112.222,57.768 111.098,58.854 Q109.974,59.939 109.323,61.397 Q108.673,62.854 108.673,64.511 z M116.955,77.654 Q114.115,77.654 111.66,76.625 Q109.205,75.597 107.342,73.797 Q105.478,71.997 104.413,69.625 Q103.349,67.254 103.349,64.511 Q103.349,61.768 104.413,59.397 Q105.478,57.025 107.342,55.225 Q109.205,53.425 111.66,52.397 Q114.115,51.368 116.955,51.368 Q119.794,51.368 122.249,52.397 Q124.704,53.425 126.568,55.225 Q128.431,57.025 129.496,59.397 Q130.561,61.768 130.561,64.511 Q130.561,67.254 129.496,69.625 Q128.431,71.997 126.568,73.797 Q124.704,75.597 122.249,76.625 Q119.794,77.654 116.955,77.654 z" fill="#FF7374"/>
    <path d="M140.913,83.539 L140.913,45.425 L151.857,45.425 Q157.418,45.425 161.766,46.625 Q166.114,47.825 169.101,50.225 Q172.088,52.625 173.656,56.197 Q175.224,59.768 175.224,64.454 Q175.224,69.139 173.656,72.711 Q172.088,76.282 169.101,78.682 Q166.114,81.082 161.766,82.311 Q157.418,83.539 151.857,83.539 z M148.367,77.597 L148.367,51.368 L151.857,51.368 Q159.37,51.368 163.54,54.654 Q167.711,57.939 167.711,64.454 Q167.711,70.968 163.54,74.282 Q159.37,77.597 151.857,77.597 z M146.829,78.968 L151.857,78.968 Q160.494,78.968 164.901,75.168 Q169.308,71.368 169.308,64.454 Q169.308,57.539 164.901,53.768 Q160.494,49.997 151.857,49.997 L146.829,49.997 z M153.513,72.682 Q157.95,72.682 160.375,70.654 Q162.801,68.625 162.801,64.454 Q162.801,60.282 160.375,58.282 Q157.95,56.282 153.513,56.282 z" fill="#FF7374"/>
    <path d="M178.477,45.425 L201.726,45.425 L201.726,55.425 L191.078,55.425 L191.078,59.654 L201.548,59.654 L201.548,69.139 L191.078,69.139 L191.078,73.539 L202.14,73.539 L202.14,83.539 L178.477,83.539 z M197.762,78.968 L197.762,77.597 L185.931,77.597 L185.931,65.082 L197.171,65.082 L197.171,63.711 L185.931,63.711 L185.931,51.368 L197.762,51.368 L197.762,49.997 L184.393,49.997 L184.393,78.968 z" fill="#FF7374"/>
    <path d="M205.689,83.539 L205.689,45.425 L216.633,45.425 Q222.194,45.425 226.542,46.625 Q230.89,47.825 233.877,50.225 Q236.865,52.625 238.432,56.197 Q240,59.768 240,64.454 Q240,69.139 238.432,72.711 Q236.865,76.282 233.877,78.682 Q230.89,81.082 226.542,82.311 Q222.194,83.539 216.633,83.539 z M213.143,77.597 L213.143,51.368 L216.633,51.368 Q224.146,51.368 228.317,54.654 Q232.487,57.939 232.487,64.454 Q232.487,70.968 228.317,74.282 Q224.146,77.597 216.633,77.597 z M211.605,78.968 L216.633,78.968 Q225.27,78.968 229.677,75.168 Q234.084,71.368 234.084,64.454 Q234.084,57.539 229.677,53.768 Q225.27,49.997 216.633,49.997 L211.605,49.997 z M218.29,72.682 Q222.726,72.682 225.152,70.654 Q227.577,68.625 227.577,64.454 Q227.577,60.282 225.152,58.282 Q222.726,56.282 218.29,56.282 z" fill="#FF7374"/>
    <path d="M-0,64.56 Q-0,61.825 1.081,59.394 Q2.163,56.963 4.031,55.158 Q5.899,53.354 8.415,52.31 Q10.932,51.265 13.763,51.265 Q16.594,51.265 19.111,52.31 Q21.628,53.354 23.496,55.158 Q25.364,56.963 26.445,59.394 Q27.526,61.825 27.526,64.56 Q27.526,67.295 26.445,69.726 Q25.364,72.157 23.496,73.961 Q21.628,75.765 19.111,76.81 Q16.594,77.854 13.763,77.854 Q10.932,77.854 8.415,76.81 Q5.899,75.765 4.031,73.961 Q2.163,72.157 1.081,69.726 Q-0,67.295 -0,64.56 z M8.258,64.56 Q8.258,65.661 8.69,66.63 Q9.123,67.598 9.87,68.32 Q10.617,69.042 11.62,69.46 Q12.623,69.878 13.763,69.878 Q14.904,69.878 15.906,69.46 Q16.909,69.042 17.656,68.32 Q18.403,67.598 18.836,66.63 Q19.268,65.661 19.268,64.56 Q19.268,63.458 18.836,62.489 Q18.403,61.521 17.656,60.799 Q16.909,60.077 15.906,59.66 Q14.904,59.242 13.763,59.242 Q12.623,59.242 11.62,59.66 Q10.617,60.077 9.87,60.799 Q9.123,61.521 8.69,62.489 Q8.258,63.458 8.258,64.56 z" fill="#424242"/>
    <path d="M29.689,51.873 L38.183,51.873 L38.183,57.722 L43.138,51.873 L53.401,51.873 L44.16,63.458 L53.873,77.209 L43.767,77.209 L38.183,69.384 L38.183,77.209 L29.689,77.209 z" fill="#424242"/>
  </g>
</svg>
