<?xml version="1.0" encoding="UTF-8"?>
<!DOCTYPE svg PUBLIC "-//W3C//DTD SVG 1.1//EN" "http://www.w3.org/Graphics/SVG/1.1/DTD/svg11.dtd">
<svg version="1.1" xmlns="http://www.w3.org/2000/svg" xmlns:xlink="http://www.w3.org/1999/xlink" x="0" y="0" width="399.516" height="79.593" viewBox="0, 0, 399.516, 79.593">
  <g id="Layer_1" transform="translate(-0.279, -3.844)">
    <path d="M44.402,4.454 C41.843,4.454 39.527,4.82 37.089,5.673 C23.194,10.548 0.279,33.098 0.279,58.816 C0.279,68.933 4.301,78.075 14.783,81.975 C17.465,82.95 20.025,83.438 22.95,83.438 C36.967,83.438 49.278,70.883 57.566,55.769 C62.198,47.237 65.367,36.754 65.367,27.735 C65.367,19.081 62.198,11.645 54.275,8.111 C52.203,5.917 48.79,4.454 44.402,4.454 z M18.928,76.734 C14.296,76.734 11.249,71.98 11.249,63.448 C11.249,55.525 13.93,45.043 20.146,35.414 C31.238,18.471 45.621,10.426 50.984,12.377 C53.544,13.352 54.763,17.252 54.763,23.103 C54.763,30.538 52.325,40.777 46.474,51.625 C37.82,67.47 26.485,76.734 18.928,76.734 z" fill="#212121"/>
    <path d="M114.123,70.03 C115.951,66.495 115.463,62.96 114.976,61.863 C114.001,59.548 111.929,59.913 110.71,61.985 C106.322,69.664 100.105,78.075 96.083,78.075 C94.499,78.075 93.767,76.856 93.767,74.662 C93.767,69.908 98.521,61.62 102.056,55.891 C106.322,48.821 108.881,43.458 108.881,39.314 C108.881,36.633 108.272,34.682 107.053,32.976 C105.59,30.904 103.64,31.391 101.934,33.707 C97.546,39.314 94.377,47.602 87.185,59.304 C80.969,69.055 74.509,77.343 71.34,77.343 C68.658,77.343 69.024,72.833 71.218,67.958 C75.484,58.572 84.382,44.433 84.382,39.436 C84.382,37.608 83.894,35.536 82.553,33.829 C81.091,32.001 78.897,31.757 77.312,33.829 C69.755,44.433 63.539,56.622 60.857,64.301 C59.76,67.227 59.273,70.03 59.273,72.712 C59.273,77.953 61.71,82.585 67.927,82.585 C74.143,82.585 79.628,78.806 83.772,74.174 C84.26,79.659 87.917,83.194 95.108,83.194 C102.665,83.194 110.588,76.978 114.123,70.03 z" fill="#212121"/>
    <path d="M141.182,39.436 C142.523,40.533 139.963,46.262 136.428,51.015 C133.99,54.306 130.09,57.963 127.165,57.963 C126.311,57.963 125.458,57.719 124.483,57.11 C130.334,45.409 139.354,37.973 141.182,39.436 z M150.324,44.312 C150.324,42.727 149.836,40.899 149.105,39.802 C147.398,37.364 144.96,35.414 141.548,33.463 C140.329,32.732 138.988,32.488 137.281,32.488 C130.212,32.488 120.339,38.948 114.001,51.869 C111.441,56.744 110.222,61.498 110.222,65.886 C110.222,75.637 116.438,83.072 127.774,82.95 C137.281,82.828 147.033,77.1 152.152,69.664 C154.346,66.373 154.224,62.839 153.858,61.742 C152.883,59.304 151.299,59.548 149.958,61.498 C144.96,69.055 136.794,78.075 127.53,78.075 C123.874,78.075 121.68,74.296 121.68,68.933 C121.68,66.739 122.045,64.179 122.777,61.742 C125.58,63.57 128.505,64.423 131.431,64.423 C142.157,64.423 150.324,51.625 150.324,44.312 z" fill="#212121"/>
    <path d="M163.244,77.221 C160.562,77.221 158.003,72.955 156.54,67.227 C160.197,61.985 163.609,56.744 166.535,52.112 C166.779,55.403 166.9,59.304 166.9,63.204 C166.9,71.127 165.803,77.221 163.244,77.221 z M146.545,65.52 C146.545,68.324 147.276,71.249 148.617,73.565 C152.761,81.244 160.075,83.194 167.388,82.95 C176.53,82.585 185.062,77.953 189.694,69.421 C191.888,65.642 191.522,62.229 190.912,61.01 C190.059,59.06 188.231,58.207 187.134,61.01 C184.94,66.983 181.527,71.005 176.53,74.418 C177.87,71.736 178.48,68.324 178.602,65.276 C178.846,58.694 177.261,50.772 177.261,42.118 C177.261,40.533 177.383,38.461 177.505,36.998 C181.283,30.782 180.552,28.1 177.261,28.1 C175.433,28.1 173.239,28.954 171.288,30.66 C168.485,32.976 167.022,35.779 166.535,40.167 C163.366,45.409 159.1,51.747 155.077,57.475 C154.712,54.55 152.883,53.941 150.445,56.013 C147.764,58.329 146.545,61.863 146.545,65.52 z" fill="#212121"/>
    <path d="M184.94,69.177 C184.94,77.587 190.547,82.828 197.007,82.828 C207.246,82.828 215.412,72.346 217.119,68.689 C218.459,65.886 218.947,64.057 218.337,61.498 C217.484,58.207 214.681,58.451 213.34,61.376 C209.074,70.518 202.736,78.197 197.982,78.197 C195.91,78.197 194.691,75.637 194.691,71.98 C194.691,69.299 195.422,66.13 196.885,62.839 C201.151,53.575 208.099,41.508 212.731,33.585 C215.412,33.22 218.581,32.976 220.775,33.22 C223.701,33.585 224.554,32.123 223.335,29.929 C222.482,28.466 220.41,26.516 216.631,26.028 C218.094,22.615 218.581,19.812 218.581,17.618 C218.581,16.155 218.094,14.083 217.24,12.62 C215.9,10.305 214.437,10.183 212.609,12.864 C209.805,16.887 207.246,20.909 203.467,27.491 C200.785,27.735 197.494,27.857 194.691,27.735 C191.888,27.613 190.669,28.832 192.375,31.391 C193.35,32.854 195.544,34.195 199.323,34.682 C194.447,43.458 189.815,53.087 187.378,59.06 C185.671,63.082 184.94,66.495 184.94,69.177 z" fill="#212121"/>
    <path d="M257.707,55.281 C250.638,68.811 241.984,76.612 235.28,76.612 C230.892,76.612 226.26,71.98 226.26,61.498 C226.26,54.184 228.576,44.19 233.939,35.536 C244.056,19.202 261.364,8.598 264.289,11.767 C265.752,13.352 264.289,17.252 262.583,21.518 C261.852,23.347 260.998,25.297 260.511,27.125 C260.023,28.71 259.78,30.172 259.78,31.635 C259.78,35.17 261.486,37.851 263.924,39.436 C266.362,40.899 268.068,39.68 268.677,37.608 C269.531,34.926 271.237,30.782 273.309,26.638 C274.528,24.2 275.016,21.762 275.016,19.568 C275.016,14.814 271.847,10.061 267.702,6.404 C265.63,4.698 262.827,3.844 259.78,3.844 C256.732,3.844 253.32,4.698 250.15,5.917 C236.377,12.133 214.559,34.195 215.046,58.816 C215.29,68.811 220.288,76.49 226.016,79.537 C229.064,81.244 232.72,82.097 236.743,82.097 C241.984,82.097 247.469,80.634 252.466,77.1 C256.854,73.809 263.436,66.739 263.436,59.669 C263.436,58.451 263.192,56.988 262.583,55.647 C261.364,52.844 258.561,53.575 257.707,55.281 z" fill="#212121"/>
    <path d="M310.485,55.16 C311.46,53.941 311.217,52.844 308.048,52.844 C309.145,42.483 305.732,41.63 302.319,37.608 C300.003,34.439 297.809,33.098 294.274,33.098 C286.229,33.098 278.55,39.192 273.065,48.943 C269.896,54.672 267.946,60.645 267.946,66.008 C267.946,69.908 269.043,73.565 271.359,76.612 C274.772,81.122 279.282,82.828 283.304,82.828 C285.132,82.828 286.595,82.463 287.692,82.097 C296.956,78.928 304.757,66.983 307.316,56.866 C308.657,56.622 309.632,56.135 310.485,55.16 z M298.906,50.406 C297.565,48.821 296.956,45.652 296.956,43.458 C296.956,41.508 298.053,40.533 298.784,40.533 C299.637,40.533 300.612,41.264 300.612,43.093 C300.612,44.677 300.125,47.602 298.906,50.406 z M277.453,71.493 C277.453,66.983 279.404,60.157 282.573,54.306 C284.645,50.65 286.961,47.602 289.52,45.165 C290.496,49.431 293.055,52.6 296.956,55.038 C296.224,57.597 294.762,60.645 292.933,63.814 C288.423,72.102 283.548,76.612 280.379,76.612 C278.55,76.612 277.453,75.149 277.453,71.493 z" fill="#212121"/>
    <path d="M366.554,25.297 C369.723,19.568 371.308,14.814 371.308,11.523 C371.308,9.817 370.82,8.232 370.211,6.77 C368.992,3.844 367.285,3.601 365.091,6.648 C361.069,12.377 353.146,26.15 347.052,37.608 C346.077,34.439 343.395,32.732 339.251,32.732 C332.913,32.732 322.796,38.461 313.289,52.234 C309.023,58.451 306.829,65.154 306.829,70.274 C306.829,77.465 310.729,82.706 317.799,82.706 C323.162,82.706 327.915,79.537 331.694,75.637 C332.669,81 336.691,83.072 342.664,83.072 C349.733,83.072 357.291,76.734 360.582,70.152 C362.166,66.739 361.679,63.326 361.069,62.229 C359.972,60.035 358.388,59.913 357.169,62.229 C353.024,70.274 347.052,78.318 342.786,78.318 C341.689,78.318 341.201,77.465 341.201,75.637 C341.201,73.687 341.933,71.005 343.395,67.836 C349.124,55.769 359.485,38.705 366.554,25.297 z M334.741,59.913 C329.256,70.518 323.405,77.343 319.505,77.343 C318.164,77.343 317.677,75.759 317.677,73.565 C317.677,69.542 319.627,63.448 323.284,57.719 C329.744,47.481 337.788,40.045 341.201,40.167 C343.517,40.289 341.323,47.359 334.741,59.913 z" fill="#212121"/>
    <path d="M386.91,39.436 C388.25,40.533 385.691,46.262 382.156,51.015 C379.718,54.306 375.818,57.963 372.892,57.963 C372.039,57.963 371.186,57.719 370.211,57.11 C376.061,45.409 385.081,37.973 386.91,39.436 z M396.051,44.312 C396.051,42.727 395.564,40.899 394.832,39.802 C393.126,37.364 390.688,35.414 387.275,33.463 C386.056,32.732 384.716,32.488 383.009,32.488 C375.94,32.488 366.067,38.948 359.728,51.869 C357.169,56.744 355.95,61.498 355.95,65.886 C355.95,75.637 362.166,83.072 373.502,82.95 C383.009,82.828 392.76,77.1 397.879,69.664 C400.073,66.373 399.952,62.839 399.586,61.742 C398.611,59.304 397.026,59.548 395.685,61.498 C390.688,69.055 382.522,78.075 373.258,78.075 C369.601,78.075 367.407,74.296 367.407,68.933 C367.407,66.739 367.773,64.179 368.504,61.742 C371.308,63.57 374.233,64.423 377.158,64.423 C387.885,64.423 396.051,51.625 396.051,44.312 z" fill="#212121"/>
  </g>
</svg>
