<svg version="1" xmlns="http://www.w3.org/2000/svg" width="160" height="160" viewBox="0 0 120.000000 120.000000"><path d="M23.3 11.5C14.7 15.3 6.6 28.1 6.6 38c.1 8.7 3.8 13.2 10.9 13.2 13.4 0 26-28.2 16.8-37.4-3.5-3.4-6.9-4.1-11-2.3zm8.7 4.9c.5 1.4.8 3.3.6 4.3-.2 1-.7 3.6-1 5.7C30 35 20.6 48 15.9 48c-4.6 0-5.1-10.8-.9-19.5 3.4-7 10.9-14.1 15.3-14.4.4-.1 1.2 1 1.7 2.3zM106.5 18.4c-2 3.5-3 4.3-5 4-2.9-.3-3.4 2-.9 3.4 1.3.7 1.4 1.3.5 2.8-.6 1-2.8 5.5-4.8 9.9l-3.8 8L92 37c-.3-5.2-.2-9.9.3-10.5 1.3-1.7.7-3.5-1.3-3.5-1.4 0-2.9 1.9-5.3 6.7-2.4 4.9-4 6.9-5.5 7.1-1.4.2-2.4 1.3-2.8 3-1.3 5.4-8.2 10.5-11 8.1-.8-.6-1.4-2.5-1.4-4.1 0-2.7.3-3 2.7-2.5 3.8.7 6.7-1 9.1-5.2 2.3-4.3 2.1-7-.9-9.3-5.3-4.4-11.7.3-15.9 11.5-2.3 6.2-6.9 11.5-8.1 9.5-.8-1.2-.2-2.8 4.6-13 2.6-5.8 2.7-9.8.1-9.8-.7 0-3 3.4-5.1 7.6C45.3 44.8 40 51.2 40 46.4c0-.9 1.6-5.1 3.5-9.4 3.7-8.1 4.2-10.5 2.5-11.5-1.7-1.1-3.7 1.2-7.1 8.1-5.5 11.5-5 18.3 1.5 17 1.6-.4 3.7-1.3 4.7-2.2 1.6-1.4 1.8-1.4 2.3.4 1 3 5.2 3.3 9.2.6C60 47 60 47 62 49c2.6 2.6 8.3 2.6 12.6-.1l3.3-2 2 2c2.7 2.7 9.9 2.9 13.1.3 2.3-1.8 2.4-1.8 4.2 0 2.4 2.4 5.9 2.3 9.2-.3 4.4-3.5 6.8-9.9 3.7-9.9-.5 0-1.4 1.4-2.1 3-1.4 3.4-5.7 7.3-7.1 6.4-1.8-1.1-.8-5 3.3-13.7 3.5-7.5 4.6-8.9 7-9.4 3-.6 3.7-2 1.3-2.9-.9-.4-1.4-1.7-1.4-3.3.4-6.6-1-6.8-4.6-.7zM74 30.4c0 2-4.9 7.6-6.6 7.6-1.2 0-1.1-.5.3-2.8 3.6-5.8 6.3-7.9 6.3-4.8zm12.5 11.1c-.1 3.1-.5 5.9-.9 6.2-.8.9-3.6-1.7-3.6-3.5 0-1.3 3.7-8.2 4.5-8.2.2 0 .2 2.5 0 5.5zM26.1 61.9C21 64.6 13.6 72.5 10.6 78.3 1.8 95.8 7 110.6 21.5 109c6-.6 12.5-7.8 12.5-13.7 0-4.5-2.1-4.2-4.8.6-2.5 4.4-8.5 10.1-10.7 10.1-.8 0-2.4-1-3.6-2.3-1.8-1.9-2-3.1-1.6-9.2.5-8.6 3.3-14.8 9.8-22 4.7-5 10.2-8.5 11.6-7.1.4.3-.1 3-1 5.9-2.2 6.9-1.2 11.6 2.5 11.7.9 0 4.8-10.6 4.8-13.1 0-4.6-4.8-9.8-9-9.8-1.4 0-4 .8-5.9 1.8zM89.7 68.9c-2.5 4.4-4.8 8.9-5.2 10-.5 1.8-.8 1.8-3.6.4-2.7-1.3-3.3-1.3-6.7.5-2 1-5.6 4.2-7.9 7-4.3 5.3-5.4 5.3-6.1.3-.7-5.1-5.5-9-10-8.3-3.5.5-9.8 7.6-11.6 12.9-2.1 6.1-2 10.1.3 14 5 8.2 15.8 3.1 20.2-9.4 1.6-4.9 2.9-4 1.5.9-1.5 5.1-.5 10.3 2.4 11.8 2.2 1.2 6.7.4 9.1-1.6 1.4-1.2 1.8-1.1 3.4.6 2.4 2.6 6.4 2.5 10.6-.3 3.3-2.3 3.5-2.3 5.4-.5 4.4 4.2 11.7 3.4 17.5-1.8 4.4-4 5.8-7 4-8.8-.8-.8-1.4-.6-2.2.8-2 3.6-6.5 7.6-9.8 8.8-2.9.9-3.5.9-4.7-.7-.7-1.1-1.3-3.3-1.3-5.1 0-3.2.1-3.2 4-2.7 5.2.7 8.6-1.5 11.1-7.2 2.2-5.1 1.5-8.4-2.5-11-5.7-3.8-15.1 3.8-18.5 14.8-1.7 5.8-6.2 12.7-8.1 12.7-2.5 0-.3-6.3 7.5-21.7 6.7-13.1 8.5-17.6 8.3-20.2-.2-1.9-.8-3.6-1.5-3.8-.6-.2-3.2 3.2-5.6 7.6zm15.9 16.5c-.8 3.1-5.3 8.6-7.2 8.6-.8 0-1.4-.3-1.4-.8 0-1.9 7.9-11.6 8.8-10.7.2.2.2 1.5-.2 2.9zM56 86.6c0 1.4-.4 2.2-1 1.9-.5-.3-1-1.7-1-3.1 0-1.4.4-2.2 1-1.9.6.3 1 1.7 1 3.1zm24-1.8c0 2.5-6.7 16.2-9.2 18.9-1.2 1.3-2.7 2.3-3.5 2.3-3.6 0 1-12 7.2-18.9 4.1-4.5 5.5-5.1 5.5-2.3zm-28.3 5.1l2.2 2.8-2.5 5.2c-2.5 5-6.8 9.1-8.1 7.7-1.4-1.3-.2-8.3 2.3-13.3 1.4-2.9 2.9-5.3 3.2-5.2.4 0 1.7 1.3 2.9 2.8z"/></svg>